<?xml version="1.0" standalone="no"?><!DOCTYPE svg PUBLIC "-//W3C//DTD SVG 1.1//EN" "http://www.w3.org/Graphics/SVG/1.1/DTD/svg11.dtd"><svg class="icon" width="16px" height="16.00px" viewBox="0 0 1024 1024" version="1.1" xmlns="http://www.w3.org/2000/svg"><path d="M144.3328 94.0544m66.6624 0l597.4528 0q66.6624 0 66.6624 66.6624l0 651.6224q0 66.6624-66.6624 66.6624l-597.4528 0q-66.6624 0-66.6624-66.6624l0-651.6224q0-66.6624 66.6624-66.6624Z" fill="#C7B0FF" /><path d="M615.6288 939.6224l-405.248-52.1216a75.7248 75.7248 0 0 1-66.048-75.1104V154.5216a51.2 51.2 0 0 1 59.5968-50.432l431.3088 72.5504A66.9184 66.9184 0 0 1 691.2 242.6368v630.5792a66.9696 66.9696 0 0 1-75.5712 66.4064z" fill="#9076F8" /><path d="M554.3936 669.3888a40.96 40.96 0 0 1-40.96-40.96v-158.72a40.96 40.96 0 0 1 81.92 0v158.976a40.96 40.96 0 0 1-40.96 40.704z" fill="#FFFFFF" /></svg>