<?xml version="1.0" standalone="no"?><!DOCTYPE svg PUBLIC "-//W3C//DTD SVG 1.1//EN" "http://www.w3.org/Graphics/SVG/1.1/DTD/svg11.dtd"><svg class="icon" width="64px" height="64.00px" viewBox="0 0 1024 1024" version="1.1" xmlns="http://www.w3.org/2000/svg"><path d="M182.1696 690.688h333.9264v237.7728H224.5632a42.3936 42.3936 0 0 1-42.3936-42.3936V690.688z" fill="#C7B0FF" /><path d="M516.096 503.4496m-425.0112 0a425.0112 425.0112 0 1 0 850.0224 0 425.0112 425.0112 0 1 0-850.0224 0Z" fill="#9076F8" /><path d="M698.88 585.3696l-129.5872 129.5872a75.2128 75.2128 0 0 1-106.4448 0L332.8 584.704a146.2784 146.2784 0 0 1 183.296-225.6384 146.2784 146.2784 0 0 1 182.784 226.304z" fill="#FFFFFF" /></svg>