<?xml version="1.0" standalone="no"?><!DOCTYPE svg PUBLIC "-//W3C//DTD SVG 1.1//EN" "http://www.w3.org/Graphics/SVG/1.1/DTD/svg11.dtd"><svg t="1702031515084" class="icon" viewBox="0 0 1024 1024" version="1.1" xmlns="http://www.w3.org/2000/svg" p-id="8216" width="32" height="32" xmlns:xlink="http://www.w3.org/1999/xlink"><path d="M922.0608 503.1936c27.136-26.4704 36.7104-65.28 24.9856-101.3248-11.7248-36.0448-42.2912-61.7984-79.7696-67.2768l-155.136-22.528a37.5296 37.5296 0 0 1-28.16-20.4288L614.656 151.04c-16.7936-33.9968-50.7392-55.0912-88.6272-55.0912-37.888 0-71.8336 21.0944-88.6272 55.0912L368.0256 291.6352a37.20704 37.20704 0 0 1-28.16 20.4288l-155.136 22.528c-37.4784 5.4272-68.0448 31.232-79.7696 67.2256-11.7248 36.0448-2.1504 74.8544 24.9856 101.3248l112.2816 109.4144a37.3248 37.3248 0 0 1 10.752 33.0752l-26.5216 154.5216c-6.4 37.3248 8.6528 74.3936 39.3216 96.6656 17.3056 12.5952 37.5808 18.9952 58.0096 18.9952 15.7184 0 31.488-3.7888 46.08-11.4688l138.752-72.96a37.2736 37.2736 0 0 1 34.7648 0l138.752 72.96c33.536 17.6128 73.4208 14.7456 104.0896-7.5264 30.6688-22.272 45.7216-59.2896 39.3216-96.6656l-26.5216-154.5216a37.3248 37.3248 0 0 1 10.752-33.0752l112.2816-109.3632z" fill="#f4ea2a" p-id="8217" data-spm-anchor-id="a313x.search_index.0.i1.635d3a81YG2ybs" class=""></path><path d="M505.7024 677.12a31.8976 31.8976 0 0 1-21.6576-8.448l-113.7664-104.3456a32.06144 32.06144 0 0 1-1.9456-45.312 32.06144 32.06144 0 0 1 45.312-1.9456l86.7328 79.5648L614.4 433.664a31.99488 31.99488 0 0 1 44.6464-7.8848 31.99488 31.99488 0 0 1 7.8848 44.6464l-134.9632 193.024a32.22528 32.22528 0 0 1-22.784 13.5168c-1.1264 0.1024-2.304 0.1536-3.4816 0.1536z" fill="#fcf2f2" p-id="8218" data-spm-anchor-id="a313x.search_index.0.i2.635d3a81YG2ybs" class="selected"></path></svg>