<?xml version="1.0" standalone="no"?><!DOCTYPE svg PUBLIC "-//W3C//DTD SVG 1.1//EN" "http://www.w3.org/Graphics/SVG/1.1/DTD/svg11.dtd"><svg t="1699602843722" class="icon" viewBox="0 0 1058 1024" version="1.1" xmlns="http://www.w3.org/2000/svg" p-id="4488" width="33.0625" height="32" xmlns:xlink="http://www.w3.org/1999/xlink"><path d="M966.110785 979.640773a5.524975 5.524975 0 0 1-4.005459-9.577673l0.377911-1.503769-0.14959-0.362164a14.840865 14.840865 0 0 0-27.372932 0.102351c-4.475879 10.782262-10.176031 21.582239-11.579418 32.982543a43.900617 43.900617 0 0 0 0.7696 15.09871 176.003998 176.003998 0 0 1-16.010026-73.100117 169.876728 169.876728 0 0 1 1.053032-18.950643q0.873918-7.737326 2.422958-15.366397a178.043141 178.043141 0 0 1 35.307087-75.458122 47.382512 47.382512 0 0 0 19.706464-20.444571 36.143608 36.143608 0 0 0 3.287035-9.876852c-0.958555 0.12597-3.617707-14.486574-2.893378-15.382143-1.338433-2.027333-3.729899-3.037063-5.190366-5.015189-7.26297-9.847327-17.26776-8.129015-22.489618 5.251383-11.158205 5.631262-11.26646 14.970772-4.418799 23.954022 4.353845 5.71393 4.952204 13.445351 8.774612 19.564748-0.393657 0.501913-0.801092 0.990047-1.194749 1.49196a179.192619 179.192619 0 0 0-18.702639 29.630554 74.491694 74.491694 0 0 0-4.448323-34.598504c-4.257399-10.270508-12.234856-18.91915-19.261631-27.796114-8.440004-10.664165-25.745161-6.009173-27.233185 7.507037l-0.041334 0.393657q1.564786 0.881791 3.064619 1.873807a7.495227 7.495227 0 0 1-3.021316 13.640211l-0.153526 0.02362a74.578299 74.578299 0 0 0 1.966316 11.150331c-9.014743 34.858318 10.445686 47.553753 38.231957 48.124556 0.614105 0.314926 1.210495 0.629851 1.8246 0.92903a182.902835 182.902835 0 0 0-9.845359 46.333417 173.478689 173.478689 0 0 0 0.12597 28.008688l-0.047238-0.330672a45.841346 45.841346 0 0 0-15.647862-26.467521c-12.041964-9.892598-29.055815-13.535892-42.048461-21.487762a8.601403 8.601403 0 0 0-13.175697 8.369146l0.053144 0.348386a50.348717 50.348717 0 0 1 5.64504 2.720169q1.566754 0.88376 3.064619 1.873807a7.495227 7.495227 0 0 1-3.021317 13.640211l-0.153526 0.02362-0.314926 0.047239a74.643252 74.643252 0 0 0 13.730753 21.499571c5.637167 30.429678 29.843129 33.317151 55.73788 24.455935h0.015746a182.847723 182.847723 0 0 0 12.282095 35.856238h43.878966c0.157463-0.486166 0.299179-0.990047 0.440896-1.476213a49.854678 49.854678 0 0 1-12.142347-0.724329c3.255543-3.995617 6.511085-8.020759 9.766628-12.016377a2.724106 2.724106 0 0 0 0.204701-0.236194c1.651391-2.043079 3.318528-4.072381 4.969918-6.117428v-0.001968a73.025322 73.025322 0 0 0-2.139525-18.602257zM892.99689 589.457899c11.628625-42.223639 33.321088-78.186164 68.344742-105.850403a9.628848 9.628848 0 0 1 13.29773-2.863854l79.941874 51.616293a9.628848 9.628848 0 0 1 2.863854 13.29773l-68.34671 105.852371a9.628848 9.628848 0 0 1-13.29773 2.861885l-79.941874-51.614324a9.628848 9.628848 0 0 1-2.861886-13.299698z" fill="#F2F2F2" p-id="4489"></path><path d="M919.771464 561.445274c2.997697-22.308536 21.452333-45.11308 43.938014-68.049499a9.018679 9.018679 0 0 1 12.455304-2.682772l68.70297 44.361196a9.018679 9.018679 0 0 1 2.680804 12.453336l-60.818023 94.194222a9.018679 9.018679 0 0 1-12.453335 2.680803l-42.560216-27.479219a40.172686 40.172686 0 0 1-11.945518-55.478067z" fill="#FFFFFF" p-id="4490"></path><path d="M925.900702 652.407573c-10.14257-42.603518-8.451814-84.567343 8.918297-125.680869a9.628848 9.628848 0 0 1 10.276413-8.91436l94.918551 6.73547a9.628848 9.628848 0 0 1 8.91436 10.274445l-8.918297 125.682837a9.628848 9.628848 0 0 1-10.274445 8.91436l-94.920519-6.735469a9.628848 9.628848 0 0 1-8.912392-10.274445z" fill="#F2F2F2" p-id="4491"></path><path d="M935.875967 614.964898c-8.117205-20.995691-2.926839-49.870424 5.733613-80.800046a9.018679 9.018679 0 0 1 9.624911-8.349463l81.573582 5.788724a9.018679 9.018679 0 0 1 8.347495 9.624912l-7.936124 111.837924a9.018679 9.018679 0 0 1-9.624911 8.349462l-50.531767-3.586214a40.172686 40.172686 0 0 1-37.186799-42.865299z" fill="#FFFFFF" p-id="4492"></path><path d="M934.086797 389.393592l-40.664758-150.50881a25.164517 25.164517 0 0 0-30.524155-17.740148 25.164517 25.164517 0 0 0-17.759831 31.909828l47.034126 155.047674 24.607492 95.416526a21.96015 21.96015 0 1 0 28.154341 1.255766zM640.824219 415.430059l41.702043-150.223408a25.164517 25.164517 0 0 0-17.226425-30.819399 25.164517 25.164517 0 0 0-31.539791 18.409365l-38.533105 157.374185-27.445759 94.639055a21.96015 21.96015 0 1 0 23.585953 15.427414zM879.460998 992.485797l-26.573809-0.001968-12.640323-102.494478 39.218068 0.001969-0.003936 102.494477z" fill="#FFB6B6" p-id="4493"></path><path d="M880.393964 1020.207116l-81.71333-0.003937v-1.033349a31.807477 31.807477 0 0 1 31.807477-31.803541l14.92747-11.325509 27.849257 11.325509h7.133063z" fill="#2F2E41" p-id="4494"></path><path d="M692.462162 992.753484l-26.160469-4.666803 5.546626-103.124328 38.609868 6.887027-17.996025 100.904104z" fill="#FFB6B6" p-id="4495"></path><path d="M688.51772 1020.207116l-80.445755-14.346826 0.181083-1.017603a31.807477 31.807477 0 0 1 36.893524-25.727446h0.001968l16.683179-8.528577 25.428268 16.037582 7.022839 1.253797zM695.052425 521.229286s-24.764955 35.074829-23.757194 46.847139 9.756786 2.381624 1.011698 11.770341-13.842945 3.092175-9.546179 14.693244 6.04657 4.090095 4.298733 11.601068 1.747837 294.858856 1.747837 294.858857h45.540198s25.682176-166.615281 22.430569-174.393942-3.176811-4.393211 0.285402-12.660005 6.717755-18.100344 6.717755-18.100345l35.995986-101.305633 27.766589 142.637639 32.685332 169.492913h43.640804s7.471608-249.243864 10.776357-252.349816-0.649534-10.083521-4.794741-14.106695-3.318528-8.107364-1.98403-16.39581 6.973632-12.90801 6.778771-18.108217 12.049838-87.838631-7.190143-100.984803-192.403744 16.504065-192.403744 16.504065z" fill="#2F2E41" p-id="4496"></path><path d="M847.32088 171.831235l-50.939202-13.201284-23.778845-32.795556-56.470081 6.942139-12.022282 44.733202-40.202211 23.33598c72.066768 0.433023 33.256135 209.21683 43.849442 222.685802 8.621086 10.963345-43.02473 37.043114-26.839527 53.677086s10.201618 9.979202 6.446132 28.091356-31.134324 37.279308 0 37.088384 219.001173-2.873695 213.63366-24.345711-5.282876-16.017899-13.376461-29.478996-13.541797-5.940283-10.817691-25.80421-6.121365-35.228356 0.039365-44.018714c9.459575-13.490622-0.072827-110.887243-8.991123-108.287139z" fill="#6C63FF" p-id="4497"></path><path d="M832.777226 172.526039s37.263562-15.830912 50.683326 13.691387c4.284955 9.428083 7.892821 33.114418 11.370779 27.861067s0.122034 6.263081 2.275337 6.276859c1.921046 0.01181 4.875441-3.096111 2.641438 7.611356a21.204329 21.204329 0 0 0 6.196159 19.517509l-64.764432 38.788982zM692.773151 199.363598s-37.261593-15.828944-50.681357 13.693355c-3.773201 8.302224-2.83433 26.748986-10.183904 24.678351s-2.131652 5.733613-3.102016 8.443941c-1.080588 3.023285 3.63739 11.573513-2.987856 8.58172s-6.209938 19.562779-6.209937 19.562779l64.762464 38.787014z" fill="#6C63FF" p-id="4498"></path><path d="M710.440473 155.150024l-10.735024 18.787275s-29.522299 16.102535-29.522299 18.787276 5.367512 24.597651 0 41.82014 10.246889 49.612579 13.419764 76.267087c13.419764 112.719716-26.485236 153.677747-34.889811 225.441399l85.163733 24.873211s14.138187-188.587241 14.138188-231.529303-37.574551-174.447085-37.574551-174.447085zM788.272346 147.099741l21.938499 12.478923s28.711366 6.330003 29.051879 8.991124 0.446801 30.951273 7.971552 47.349051 5.45018 25.11531 25.7117 73.584315c10.353176 24.764955 34.120211 222.908217 34.120211 222.908217l-81.290149 35.547218s-38.109924-185.235252-43.595532-227.823023 6.09184-173.035825 6.09184-173.035825z" fill="#2F2E41" p-id="4499"></path><path d="M733.414289 66.01823m-55.493812 0a55.493813 55.493813 0 1 0 110.987625 0 55.493813 55.493813 0 1 0-110.987625 0Z" fill="#FFB6B6" p-id="4500"></path><path d="M769.93384 109.133501c-13.116648-10.254762 4.816392-55.359969-16.848516-45.731121 0 0-26.473426-16.848515-31.793699-5.776915-6.16073 12.819437-28.065768 7.005124-41.520961 2.480038a32.689269 32.689269 0 0 0 2.239908-7.678278 61.469524 61.469524 0 0 1-7.87117 5.271066 15.976565 15.976565 0 0 1-4.814424-3.948378 9.776469 9.776469 0 0 1-1.226241-11.09522c2.237939-3.44253 6.859471-4.501467 9.579641-7.558212a3.290972 3.290972 0 0 0 0.452705-3.023285 8.648642 8.648642 0 0 1 7.747168-10.83147 3.109889 3.109889 0 0 0 1.476213-0.322799 33.722618 33.722618 0 0 0 6.280796-4.958108c-3.153192 0.145653 0.702678-19.155345 31.96494-15.50024 7.869201-0.289338 11.980948 8.390797 19.730084 9.762691 18.787275-10.735024 35.557059 4.751439 43.715598 19.552938 8.160507 14.803468 16.994168 62.508778-19.112042 79.357293z" fill="#2F2E41" p-id="4501"></path><path d="M533.149217 29.524267H35.70468A35.734205 35.734205 0 0 0 0 65.209265v448.237424A35.751919 35.751919 0 0 0 35.70468 549.15137h497.444537A35.734205 35.734205 0 0 0 568.834214 513.446689V65.209265A35.718458 35.718458 0 0 0 533.149217 29.524267z" fill="#FFFFFF" p-id="4502"></path><path d="M305.859598 132.40256h-53.143681a9.841422 9.841422 0 1 1 0-19.682844h53.143681a9.841422 9.841422 0 0 1 0 19.682844zM1010.505442 584.58049h-53.143681a9.841422 9.841422 0 0 1 0-19.682845h53.143681a9.841422 9.841422 0 0 1 0 19.682845z" fill="#6C63FF" p-id="4503"></path><path d="M443.639512 338.54493h-328.703508a9.841422 9.841422 0 0 1 0-19.682844h328.703508a9.841422 9.841422 0 0 1 0 19.682844zM443.639512 403.498318h-328.703508a9.841422 9.841422 0 0 1 0-19.682845h328.703508a9.841422 9.841422 0 0 1 0 19.682845zM443.639512 468.451706h-328.703508a9.841422 9.841422 0 0 1 0-19.682845h328.703508a9.841422 9.841422 0 0 1 0 19.682845zM376.454089 161.930764H182.125363a35.734205 35.734205 0 0 0-35.704681 35.684998v58.517097a35.751919 35.751919 0 0 0 35.704681 35.704681h194.328726a35.734205 35.734205 0 0 0 35.684998-35.704681V197.615762a35.718458 35.718458 0 0 0-35.684998-35.684998z m31.748429 94.202095a31.768111 31.768111 0 0 1-31.768111 31.768112h-139.498226a86.578929 86.578929 0 0 1-86.57893-86.57893V197.615762a31.799604 31.799604 0 0 1 31.768112-31.748429h194.328726a31.781889 31.781889 0 0 1 31.748429 31.748429z" fill="#E6E6E6" p-id="4504"></path><path d="M281.46468 214.543008m-33.460836 0a33.460836 33.460836 0 1 0 66.921673 0 33.460836 33.460836 0 1 0-66.921673 0Z" fill="#E6E6E6" p-id="4505"></path><path d="M358.444286 291.83754L208.638155 291.306103l47.238827-11.809707 5.885171-19.426968L307.052379 259.813551l13.56148 19.210457 34.24815 8.876963 3.109889 0.806996 0.472388 3.129573zM262.447116 235.906768c7.180302-5.611579-2.633565-30.30174 9.223381-25.032642 0 0 14.492479-9.221413 17.403571-3.161065 3.371671 7.016934 15.36246 3.834218 22.727781 1.358116a17.891706 17.891706 0 0 1-1.226241-4.204255 33.649791 33.649791 0 0 0 4.310543 2.885505 8.745088 8.745088 0 0 0 2.633565-2.161177 5.351765 5.351765 0 0 0 0.671185-6.074126c-1.224273-1.883648-3.753519-2.462324-5.24351-4.137334a1.80098 1.80098 0 0 1-0.246036-1.653358 4.733724 4.733724 0 0 0-4.243621-5.930442 1.702566 1.702566 0 0 1-0.806997-0.177145 18.458572 18.458572 0 0 1-3.438593-2.712296c1.726185 0.078731-0.383815-10.485051-17.496081-8.483306-4.308575-0.159431-6.558324 4.592008-10.799977 5.341924-10.284286-5.875329-19.462397 2.602072-23.928434 10.703531s-9.302112 34.216657 10.459464 43.440038z" fill="#E6E6E6" p-id="4506"></path><path d="M533.149217 29.524267H35.70468A35.734205 35.734205 0 0 0 0 65.209265v448.237424A35.751919 35.751919 0 0 0 35.70468 549.15137h497.444537A35.734205 35.734205 0 0 0 568.834214 513.446689V65.209265A35.718458 35.718458 0 0 0 533.149217 29.524267zM564.897645 513.446689A31.768111 31.768111 0 0 1 533.129534 545.214801H260.207208A256.270639 256.270639 0 0 1 3.936569 288.944161V65.209265A31.799604 31.799604 0 0 1 35.70468 33.460836h497.444537A31.781889 31.781889 0 0 1 564.897645 65.209265z" fill="#E6E6E6" p-id="4507"></path><path d="M1052.849146 1023.395737l-620.712289 0.604263a2.342259 2.342259 0 0 1 0-4.688454l620.712289-0.604263a2.342259 2.342259 0 0 1 0 4.688454z" fill="#CACACA" p-id="4508"></path></svg>